<?xml version="1.0" encoding="utf-8"?>
<!-- Generator: Adobe Illustrator 17.0.0, SVG Export Plug-In . SVG Version: 6.00 Build 0)  -->
<!DOCTYPE svg PUBLIC "-//W3C//DTD SVG 1.1//EN" "http://www.w3.org/Graphics/SVG/1.1/DTD/svg11.dtd">
<svg version="1.1" id="选择地址展开_市_区_1_"
	 xmlns="http://www.w3.org/2000/svg" xmlns:xlink="http://www.w3.org/1999/xlink" x="0px" y="0px" width="26px" height="35px"
	 viewBox="0 0 26 35" enable-background="new 0 0 26 35" xml:space="preserve">
<g id="定位_1_">
	<g id="形状_8">
		<g>
			<path fill="#405D9E" d="M13,2c6.075,0,11,4.925,11,11c0,1.126-0.171,2.213-0.486,3.236C22.619,20.343,20.092,27.549,13,33
				C2.267,25.484,2,14.053,2,14.053l0.053-0.003C2.02,13.704,2,13.354,2,13C2,6.925,6.925,2,13,2 M13,0
				C6.119,0,0.47,5.373,0.028,12.144l-0.073,0.003l0.046,1.951c0.012,0.508,0.422,12.535,11.852,20.539l1.202,0.842l1.164-0.894
				c7.626-5.861,10.308-13.662,11.232-17.844C25.815,15.528,26,14.27,26,13C26,5.832,20.168,0,13,0L13,0z"/>
		</g>
	</g>
	<g id="椭圆_15">
		<g>
			<path fill="#405D9E" d="M13,9c2.209,0,4,1.791,4,4c0,2.209-1.791,4-4,4s-4-1.791-4-4C9,10.791,10.791,9,13,9 M13,7
				c-3.308,0-6,2.692-6,6s2.692,6,6,6s6-2.692,6-6S16.308,7,13,7L13,7z"/>
		</g>
	</g>
</g>
</svg>
